<svg width="38" height="20" viewBox="0 0 38 20" fill="none" xmlns="http://www.w3.org/2000/svg">
<path d="M38 0H0V20H38V0Z" fill="#B22234"/>
<path d="M0 2.30762H38H0ZM38 5.38454H0H38ZM0 8.46146H38H0ZM38 11.5384H0H38ZM0 14.6153H38H0ZM38 17.6922H0H38Z" fill="black"/>
<path d="M38 18.4616H0V16.9231H38V18.4616ZM38 15.3847H0V13.8462H38V15.3847ZM38 12.3077H0V10.7693H38V12.3077ZM38 9.23082H0V7.69236H38V9.23082ZM38 6.1539H0V4.61544H38V6.1539ZM38 3.07697H0V1.53851H38V3.07697Z" fill="white"/>
<path d="M15.2 0H0V10.7692H15.2V0Z" fill="#3C3B6E"/>
<path d="M1.26762 0.461487L1.6307 1.57533L0.679932 0.886102H1.84916L0.904547 1.57533L1.26762 0.461487Z" fill="white"/>
<path d="M1.26762 2.61546L1.6307 3.72931L0.679932 3.04008H1.84916L0.90147 3.72931L1.26762 2.61546Z" fill="white"/>
<path d="M1.26772 4.76929L1.6308 5.88313L0.683105 5.1939H1.85234L0.904644 5.88313L1.26772 4.76929Z" fill="white"/>
<path d="M1.26772 6.9231L1.6308 8.03694L0.683105 7.34771H1.85234L0.904644 8.03694L1.26772 6.9231Z" fill="white"/>
<path d="M1.26772 9.07692L1.6308 10.1908L0.683105 9.50153H1.85234L0.904644 10.1908L1.26772 9.07692Z" fill="white"/>
<path d="M2.53237 1.53851L2.89545 2.65236L1.94775 1.96313H3.11699L2.17237 2.65236L2.53237 1.53851Z" fill="white"/>
<path d="M2.53237 3.69238L2.89545 4.80623L1.94775 4.117H3.11699L2.16929 4.80623L2.53237 3.69238Z" fill="white"/>
<path d="M2.53237 5.84613L2.89545 6.95998L1.94775 6.27075H3.11699L2.16929 6.95998L2.53237 5.84613Z" fill="white"/>
<path d="M2.53237 8L2.89545 9.11385L1.94775 8.42462H3.11699L2.16929 9.11385L2.53237 8Z" fill="white"/>
<path d="M3.80019 0.461487L4.16327 1.57533L3.21558 0.886102H4.38481L3.43711 1.57533L3.80019 0.461487Z" fill="white"/>
<path d="M3.80019 2.61546L4.16327 3.72931L3.21558 3.04008H4.38481L3.43711 3.72931L3.80019 2.61546Z" fill="white"/>
<path d="M3.80019 4.76929L4.16327 5.88313L3.21558 5.1939H4.38481L3.43711 5.88313L3.80019 4.76929Z" fill="white"/>
<path d="M3.80019 6.9231L4.16327 8.03694L3.21558 7.34771H4.38481L3.43711 8.03694L3.80019 6.9231Z" fill="white"/>
<path d="M3.80019 9.07692L4.16327 10.1908L3.21558 9.50153H4.38481L3.43711 10.1908L3.80019 9.07692Z" fill="white"/>
<path d="M5.06802 1.53851L5.43109 2.65236L4.4834 1.96313H5.65263L4.70494 2.65236L5.06802 1.53851Z" fill="white"/>
<path d="M5.06802 3.69238L5.43109 4.80623L4.4834 4.117H5.65263L4.70494 4.80623L5.06802 3.69238Z" fill="white"/>
<path d="M5.06802 5.84613L5.43109 6.95998L4.4834 6.27075H5.65263L4.70494 6.95998L5.06802 5.84613Z" fill="white"/>
<path d="M5.06802 8L5.43109 9.11385L4.4834 8.42462H5.65263L4.70494 9.11385L5.06802 8Z" fill="white"/>
<path d="M6.33242 0.461487L6.6955 1.57533L5.7478 0.886102H6.91703L5.96934 1.57533L6.33242 0.461487Z" fill="white"/>
<path d="M6.33242 2.61546L6.6955 3.72931L5.7478 3.04008H6.91703L5.96934 3.72931L6.33242 2.61546Z" fill="white"/>
<path d="M6.33242 4.76929L6.6955 5.88313L5.7478 5.1939H6.91703L5.96934 5.88313L6.33242 4.76929Z" fill="white"/>
<path d="M6.33242 6.9231L6.6955 8.03694L5.7478 7.34771H6.91703L5.96934 8.03694L6.33242 6.9231Z" fill="white"/>
<path d="M6.33242 9.07692L6.6955 10.1908L5.7478 9.50153H6.91703L5.96934 10.1908L6.33242 9.07692Z" fill="white"/>
<path d="M7.59951 1.53851L7.96258 2.65236L7.01489 1.96313H8.18412L7.23643 2.65236L7.59951 1.53851Z" fill="white"/>
<path d="M7.59951 3.69238L7.96258 4.80623L7.01489 4.117H8.18412L7.23643 4.80623L7.59951 3.69238Z" fill="white"/>
<path d="M7.59951 5.84613L7.96258 6.95998L7.01489 6.27075H8.18412L7.23643 6.95998L7.59951 5.84613Z" fill="white"/>
<path d="M7.59951 8L7.96258 9.11385L7.01489 8.42462H8.18412L7.23643 9.11385L7.59951 8Z" fill="white"/>
<path d="M8.86831 0.461487L9.23138 1.57533L8.28369 0.886102H9.45292L8.50523 1.57533L8.86831 0.461487Z" fill="white"/>
<path d="M8.86831 2.61546L9.23138 3.72931L8.28369 3.04008H9.45292L8.50523 3.72931L8.86831 2.61546Z" fill="white"/>
<path d="M8.86831 4.76929L9.23138 5.88313L8.28369 5.1939H9.45292L8.50523 5.88313L8.86831 4.76929Z" fill="white"/>
<path d="M8.86831 6.9231L9.23138 8.03694L8.28369 7.34771H9.45292L8.50523 8.03694L8.86831 6.9231Z" fill="white"/>
<path d="M8.86831 9.07692L9.23138 10.1908L8.28369 9.50153H9.45292L8.50523 10.1908L8.86831 9.07692Z" fill="white"/>
<path d="M10.132 1.53851L10.4951 2.65236L9.54736 1.96313H10.7166L9.7689 2.65236L10.132 1.53851Z" fill="white"/>
<path d="M10.132 3.69238L10.4951 4.80623L9.54736 4.117H10.7166L9.7689 4.80623L10.132 3.69238Z" fill="white"/>
<path d="M10.132 5.84613L10.4951 6.95998L9.54736 6.27075H10.7166L9.7689 6.95998L10.132 5.84613Z" fill="white"/>
<path d="M10.132 8L10.4951 9.11385L9.54736 8.42462H10.7166L9.7689 9.11385L10.132 8Z" fill="white"/>
<path d="M11.3996 0.461487L11.7626 1.57533L10.8149 0.886102H11.9842L11.0365 1.57533L11.3996 0.461487Z" fill="white"/>
<path d="M11.3996 2.61546L11.7626 3.72931L10.8149 3.04008H11.9842L11.0365 3.72931L11.3996 2.61546Z" fill="white"/>
<path d="M11.3996 4.76929L11.7626 5.88313L10.8149 5.1939H11.9842L11.0365 5.88313L11.3996 4.76929Z" fill="white"/>
<path d="M11.3996 6.9231L11.7626 8.03694L10.8149 7.34771H11.9842L11.0365 8.03694L11.3996 6.9231Z" fill="white"/>
<path d="M11.3996 9.07692L11.7626 10.1908L10.8149 9.50153H11.9842L11.0365 10.1908L11.3996 9.07692Z" fill="white"/>
<path d="M12.6674 1.53851L13.0305 2.65236L12.0828 1.96313H13.252L12.3043 2.65236L12.6674 1.53851Z" fill="white"/>
<path d="M12.6674 3.69238L13.0305 4.80623L12.0828 4.117H13.252L12.3043 4.80623L12.6674 3.69238Z" fill="white"/>
<path d="M12.6674 5.84613L13.0305 6.95998L12.0828 6.27075H13.252L12.3043 6.95998L12.6674 5.84613Z" fill="white"/>
<path d="M12.6674 8L13.0305 9.11385L12.0828 8.42462H13.252L12.3043 9.11385L12.6674 8Z" fill="white"/>
<path d="M13.932 0.461487L14.2951 1.57533L13.3474 0.886102H14.5166L13.569 1.57533L13.932 0.461487Z" fill="white"/>
<path d="M13.932 2.61546L14.2951 3.72931L13.3474 3.04008H14.5166L13.569 3.72931L13.932 2.61546Z" fill="white"/>
<path d="M13.932 4.76929L14.2951 5.88313L13.3474 5.1939H14.5166L13.569 5.88313L13.932 4.76929Z" fill="white"/>
<path d="M13.932 6.9231L14.2951 8.03694L13.3474 7.34771H14.5166L13.569 8.03694L13.932 6.9231Z" fill="white"/>
<path d="M13.932 9.07692L14.2951 10.1908L13.3474 9.50153H14.5166L13.569 10.1908L13.932 9.07692Z" fill="white"/>
</svg>
