<svg width="21" height="20" viewBox="0 0 21 20" fill="none" xmlns="http://www.w3.org/2000/svg">
<path d="M18.8333 10.1914C18.8333 9.62494 18.7865 9.0554 18.6865 8.49811H10.6671V11.7071H15.2594C15.0689 12.7421 14.4566 13.6576 13.56 14.2394V16.3216H16.2997C17.9086 14.8702 18.8333 12.7268 18.8333 10.1914Z" fill="#3B7BEC"/>
<path d="M10.6671 18.3334C12.9602 18.3334 14.8939 17.5954 16.3029 16.3216L13.5631 14.2394C12.8009 14.7477 11.8168 15.0356 10.6703 15.0356C8.45221 15.0356 6.57155 13.5688 5.89676 11.5969H3.06952V13.7434C4.51282 16.5574 7.45252 18.3334 10.6671 18.3334Z" fill="#2AA24C"/>
<path d="M5.89362 11.5969C5.53748 10.5619 5.53748 9.44122 5.89362 8.40625V6.25977H3.0695C1.86363 8.61447 1.86363 11.3887 3.0695 13.7434L5.89362 11.5969Z" fill="#F2B502"/>
<path d="M10.6671 4.96442C11.8793 4.94605 13.0508 5.39311 13.9286 6.21373L16.356 3.83453C14.819 2.41987 12.779 1.64211 10.6671 1.66661C7.45252 1.66661 4.51282 3.44259 3.06952 6.25966L5.89364 8.40615C6.5653 6.43114 8.44909 4.96442 10.6671 4.96442Z" fill="#E23F2C"/>
</svg>
