<svg xmlns="http://www.w3.org/2000/svg" width="24" height="24" viewBox="0 0 24 24" fill="none">
  <path fill-rule="evenodd" clip-rule="evenodd" d="M13.572 17.559C12.8533 18.9963 12.1936 19.2 12 19.2C11.8064 19.2 11.1467 18.9963 10.428 17.559C9.85286 16.4087 9.42865 14.7846 9.32465 12.9H14.6753C14.5713 14.7846 14.1471 16.4087 13.572 17.559ZM14.6753 11.1H9.32465C9.42865 9.21542 9.85286 7.59129 10.428 6.44102C11.1467 5.00369 11.8064 4.8 12 4.8C12.1936 4.8 12.8533 5.00369 13.572 6.44102C14.1471 7.59129 14.5713 9.21542 14.6753 11.1ZM16.4778 12.9C16.369 15.0903 15.8677 17.0497 15.1164 18.4924C17.2749 17.4545 18.8361 15.3718 19.1443 12.9H16.4778ZM19.1443 11.1H16.4778C16.369 8.90967 15.8677 6.95034 15.1164 5.50755C17.2749 6.54553 18.8361 8.62821 19.1443 11.1ZM7.52222 11.1C7.63095 8.90967 8.13233 6.95035 8.88358 5.50756C6.72509 6.54553 5.16393 8.62821 4.8557 11.1H7.52222ZM4.8557 12.9C5.16393 15.3718 6.72509 17.4545 8.88358 18.4924C8.13233 17.0497 7.63095 15.0903 7.52222 12.9H4.8557ZM21 12C21 7.02944 16.9706 3 12 3C7.02944 3 3 7.02944 3 12C3 16.9706 7.02944 21 12 21C16.9706 21 21 16.9706 21 12Z" fill="#FFFFFF"/>
</svg>