<?xml version="1.0" encoding="UTF-8"?><svg xmlns="http://www.w3.org/2000/svg" xmlns:xlink="http://www.w3.org/1999/xlink" viewBox="0 0 134.69 132.8"><defs><style>.cls-1{fill:url(#radial-gradient-7);}.cls-2{fill:url(#radial-gradient);}.cls-2,.cls-3{mix-blend-mode:screen;}.cls-4{fill:url(#radial-gradient-5);}.cls-5{fill:url(#radial-gradient-4);}.cls-6{isolation:isolate;}.cls-7{fill:url(#radial-gradient-6);}.cls-8{fill:url(#radial-gradient-2);}.cls-9{fill:url(#radial-gradient-3);}</style><radialGradient id="radial-gradient" cx="73.1" cy="11.06" fx="73.1" fy="11.06" r="119.49" gradientUnits="userSpaceOnUse"><stop offset=".67" stop-color="#000"/><stop offset=".91" stop-color="#a100d6"/><stop offset="1" stop-color="#dd8cd6"/></radialGradient><radialGradient id="radial-gradient-2" cx="72" cy="1.69" fx="72" fy="1.69" r="88.12" gradientUnits="userSpaceOnUse"><stop offset=".36" stop-color="#304"/><stop offset=".51" stop-color="#4a0063"/><stop offset=".85" stop-color="#8600b3"/><stop offset=".98" stop-color="#a100d6"/></radialGradient><radialGradient id="radial-gradient-3" cx="70.87" cy="12.74" fx="70.87" fy="12.74" r="64.64" xlink:href="#radial-gradient"/><radialGradient id="radial-gradient-4" cx="70.87" cy="12.74" fx="70.87" fy="12.74" r="64.64" xlink:href="#radial-gradient"/><radialGradient id="radial-gradient-5" cx="60.44" cy="51.51" fx="60.44" fy="51.51" r="76.78" gradientUnits="userSpaceOnUse"><stop offset=".47" stop-color="#000" stop-opacity="0"/><stop offset=".91" stop-color="#a100d6"/><stop offset=".98" stop-color="#dd8cd6"/></radialGradient><radialGradient id="radial-gradient-6" cx="25.26" cy="51.33" fx="25.26" fy="51.33" r="90.61" gradientUnits="userSpaceOnUse"><stop offset=".18" stop-color="#000" stop-opacity="0"/><stop offset=".79" stop-color="#a100d6"/><stop offset=".87" stop-color="#bf46d6"/><stop offset=".94" stop-color="#cd66d6"/></radialGradient><radialGradient id="radial-gradient-7" cx="48.41" cy="10.94" fx="48.41" fy="10.94" r="73" gradientTransform="translate(4.76 -12.27) rotate(16.33) scale(1 .91)" gradientUnits="userSpaceOnUse"><stop offset=".14" stop-color="#000" stop-opacity="0"/><stop offset=".43" stop-color="#260032" stop-opacity=".4"/><stop offset=".8" stop-color="#a100d6"/><stop offset="1" stop-color="#dd8cd6"/></radialGradient></defs><g class="cls-6"><g id="Layer_1"><polygon points="122.76 22.87 67.32 -.26 12.4 22.87 12.4 22.87 12.4 97.16 67.54 120.18 67.54 120.22 67.58 120.2 67.63 120.22 67.63 120.18 122.77 97.16 122.77 22.87 122.76 22.87"/><g><polygon class="cls-2" points="134.69 13.76 134.69 104.61 67.16 132.8 0 104.39 0 13.98 .06 13.95 1.24 103.37 66.89 131.29 133.63 103.7 134.63 13.73 134.69 13.76"/><g><path class="cls-8" d="M94.07,42c0,3.33-.51,6.18-1.54,8.53-1.02,2.35-2.56,4.71-4.61,7.08l-5.96,7.05c-1.69,1.97-2.97,3.98-3.86,6.03-.96,2.25-2.05,3.98-3.25,5.18-1.81,1.81-4.24,2.71-7.29,2.71s-5.36-.96-7.29-2.89c-1.57-1.57-2.35-3.7-2.35-6.39,0-3.21,1.57-6.65,4.7-10.3l8.44-9.76c2.17-2.57,3.25-4.98,3.25-7.23,0-1.93-.61-3.52-1.84-4.76-1.23-1.24-2.94-1.87-5.15-1.87-2.53,0-4.5,.78-5.9,2.35-.84,.96-1.63,2.33-2.35,4.1-.72,1.81-1.65,3.28-2.77,4.4-1.53,1.53-3.76,2.29-6.69,2.29-2.65,0-4.84-.86-6.57-2.59-1.61-1.61-2.41-3.92-2.41-6.93,0-2.05,.6-4.42,1.81-7.11,1.2-2.69,3.05-5.16,5.54-7.41,5.06-4.5,11.43-6.81,19.1-6.93,4.98-.08,9.49,.8,13.53,2.65,4.04,1.85,7.29,4.66,9.76,8.44,2.47,3.78,3.71,8.23,3.71,13.38Zm-18.44,59.04c-2.25,2.25-4.94,3.37-8.07,3.37s-5.82-1.12-8.07-3.37c-2.25-2.25-3.37-4.94-3.37-8.07s1.12-5.82,3.37-8.07c2.25-2.25,4.94-3.37,8.07-3.37s5.82,1.13,8.07,3.37c2.25,2.25,3.37,4.94,3.37,8.07s-1.12,5.82-3.37,8.07Z"/><g class="cls-3"><path class="cls-9" d="M72.47,36.21c-1.22-1.25-2.95-1.87-5.15-1.87-2.54,0-4.5,.77-5.9,2.35-.84,.96-1.63,2.32-2.35,4.09-.72,1.82-1.65,3.28-2.78,4.41-1.53,1.53-3.74,2.28-6.68,2.28-2.66,0-4.84-.86-6.57-2.59-1.51-1.49-2.3-3.6-2.39-6.33-.02,.15-.02,.31-.02,.45,0,3,.79,5.32,2.4,6.92,1.73,1.73,3.91,2.59,6.57,2.59,2.93,0,5.15-.76,6.68-2.28,1.13-1.13,2.06-2.59,2.78-4.39,.72-1.77,1.51-3.14,2.35-4.1,1.41-1.56,3.36-2.35,5.9-2.35,2.2,0,3.93,.62,5.15,1.87,1.1,1.12,1.7,2.51,1.8,4.19,.03-.15,.03-.31,.03-.46,0-1.92-.62-3.52-1.84-4.75Zm21.57,5.44c-.05,3.04-.55,5.66-1.51,7.84-1.03,2.35-2.56,4.7-4.62,7.07l-5.96,7.05c-1.68,1.97-2.97,3.98-3.86,6.02-.96,2.25-2.04,3.98-3.24,5.18-1.82,1.8-4.24,2.71-7.29,2.71s-5.37-.96-7.29-2.9c-1.48-1.48-2.27-3.45-2.33-5.92-.02,.19-.02,.38-.02,.57,0,2.69,.79,4.82,2.35,6.4,1.92,1.92,4.36,2.88,7.29,2.88s5.48-.91,7.29-2.71c1.2-1.2,2.28-2.93,3.24-5.18,.89-2.04,2.18-4.05,3.86-6.02l5.96-7.05c2.06-2.37,3.59-4.72,4.62-7.07,1.03-2.35,1.53-5.2,1.53-8.53,0-.12,0-.24-.02-.34Zm-15.05,50.8c-.12,2.9-1.24,5.42-3.36,7.55-2.25,2.25-4.94,3.38-8.07,3.38s-5.84-1.13-8.08-3.38c-2.13-2.13-3.24-4.65-3.35-7.55-.02,.17-.02,.34-.02,.51,0,3.14,1.12,5.82,3.36,8.07,2.25,2.27,4.94,3.38,8.08,3.38s5.82-1.12,8.07-3.38c2.25-2.25,3.38-4.93,3.38-8.07,0-.17,0-.34-.02-.51Z"/><path class="cls-5" d="M74.27,41.43c-.12,2.11-1.2,4.36-3.23,6.76l-8.43,9.77c-3.14,3.66-4.7,7.09-4.7,10.3,0,.14,0,.29,.02,.43,.19-3.04,1.73-6.26,4.69-9.7l8.43-9.77c2.18-2.56,3.26-4.98,3.26-7.23,0-.19,0-.38-.03-.57Z"/></g></g><polygon class="cls-4" points="67.54 120.22 67.54 45.47 122.77 22.87 122.77 97.16 67.54 120.22"/><polygon class="cls-7" points="67.63 120.22 67.63 45.47 12.4 22.87 12.4 97.16 67.63 120.22"/><polygon class="cls-1" points="67.32 -.26 12.4 22.87 67.63 45.47 122.77 22.87 67.32 -.26"/></g></g></g></svg>