<svg width="20" height="20" viewBox="0 0 20 20" fill="none" xmlns="http://www.w3.org/2000/svg">
<path d="M1.66663 10.0003L5.83329 13.3337V10.8337H13.3333V9.16699H5.83329V6.66699L1.66663 10.0003Z" fill="#5639C6"/>
<path d="M10.8342 2.49905C9.84882 2.49632 8.87268 2.68914 7.96234 3.06636C7.052 3.44357 6.22555 3.99766 5.53088 4.69655L6.70922 5.87489C7.81088 4.77322 9.27588 4.16572 10.8342 4.16572C12.3926 4.16572 13.8576 4.77322 14.9592 5.87489C16.0609 6.97655 16.6684 8.44155 16.6684 9.99989C16.6684 11.5582 16.0609 13.0232 14.9592 14.1249C13.8576 15.2266 12.3926 15.8341 10.8342 15.8341C9.27588 15.8341 7.81088 15.2266 6.70922 14.1249L5.53088 15.3032C6.94672 16.7199 8.83005 17.5007 10.8342 17.5007C12.8384 17.5007 14.7217 16.7199 16.1376 15.3032C17.5542 13.8874 18.3351 12.0041 18.3351 9.99989C18.3351 7.99572 17.5542 6.11239 16.1376 4.69655C15.4429 3.99766 14.6164 3.44357 13.7061 3.06636C12.7958 2.68914 11.8196 2.49632 10.8342 2.49905Z" fill="#5639C6"/>
</svg>
