<svg width="52" height="52" viewBox="0 0 52 52" fill="none" xmlns="http://www.w3.org/2000/svg">
<path d="M26 52C40.3594 52 52 40.3594 52 26C52 11.6406 40.3594 0 26 0C11.6406 0 0 11.6406 0 26C0 40.3594 11.6406 52 26 52Z" fill="url(#paint0_linear_525_14483)"/>
<path d="M25.998 49.7786C22.7836 49.7786 19.6686 49.1457 16.7397 47.9047C13.9101 46.7008 11.366 44.9882 9.18173 42.8039C6.99748 40.6197 5.28484 38.0755 4.08102 35.2459C2.83997 32.3171 2.20703 29.202 2.20703 25.9877C2.20703 22.7734 2.83997 19.6584 4.08102 16.7295C5.28484 13.8999 6.99748 11.3557 9.18173 9.17148C11.366 6.98723 13.9101 5.27458 16.7397 4.07076C19.6686 2.82971 22.7836 2.19678 25.998 2.19678C29.2123 2.19678 32.3273 2.82971 35.2562 4.07076C38.0858 5.27458 40.6299 6.98723 42.8142 9.17148C44.9984 11.3557 46.7111 13.8999 47.9149 16.7295C49.156 19.6584 49.7889 22.7734 49.7889 25.9877C49.7889 29.202 49.156 32.3171 47.9149 35.2459C46.7111 38.0755 44.9984 40.6197 42.8142 42.8039C40.6299 44.9882 38.0858 46.7008 35.2562 47.9047C32.3149 49.1457 29.1999 49.7786 25.998 49.7786ZM25.998 3.43783C13.5626 3.43783 3.44808 13.5524 3.44808 25.9877C3.44808 38.423 13.5626 48.55 25.998 48.55C38.4333 48.55 48.5478 38.4354 48.5478 26.0001C48.5478 13.5648 38.4333 3.43783 25.998 3.43783Z" fill="white"/>
<path d="M29.0296 39.1807L26.262 40.7568L13.4792 33.4471L13.4668 18.8151L13.9632 18.542L19.0019 15.6504V15.6628L19.0143 15.6504V30.2824L23.4945 32.8513V26.4227L29.0296 29.5874V39.1807Z" fill="white" stroke="#231F20" stroke-miterlimit="10"/>
<path d="M33.4593 36.6611V36.6487L33.4469 36.6611L33.4593 22.0292L28.9667 19.4602V25.8888L23.4316 22.7241V13.1308L26.1247 11.5919L26.1992 11.5547L38.982 18.8645L38.9944 33.4965L33.4593 36.6611Z" fill="white" stroke="#231F20" stroke-miterlimit="10"/>
<path d="M19.0134 15.6504L19.002 15.6618V15.6504H19.0134Z" fill="white" stroke="#231F20" stroke-miterlimit="10"/>
<path d="M33.4567 36.6489V36.6603H33.4453L33.4567 36.6489Z" fill="white" stroke="#231F20" stroke-miterlimit="10"/>
<path d="M19.0134 15.6504L19.002 15.6618V15.6504H19.0134Z" fill="white" stroke="#231F20" stroke-miterlimit="10"/>
<path d="M33.4587 36.6484V36.6599H33.4473L33.4587 36.6484Z" fill="white" stroke="#231F20" stroke-miterlimit="10"/>
<defs>
<linearGradient id="paint0_linear_525_14483" x1="26.1871" y1="0.159177" x2="25.7988" y2="52.702" gradientUnits="userSpaceOnUse">
<stop stop-color="#10412B"/>
<stop offset="0.2" stop-color="#2D0E69"/>
<stop offset="0.2375" stop-color="#260C59"/>
<stop offset="0.3569" stop-color="#110529"/>
<stop offset="0.4482" stop-color="#05010B"/>
<stop offset="0.5"/>
<stop offset="0.6899" stop-color="#12062B"/>
<stop offset="0.8352" stop-color="#2D0E69"/>
<stop offset="0.8971" stop-color="#1F264C"/>
<stop offset="0.9606" stop-color="#143A34"/>
<stop offset="1" stop-color="#10412B"/>
</linearGradient>
</defs>
</svg>
