<?xml version="1.0" encoding="utf-8"?>
<!-- Generator: Adobe Illustrator 27.0.0, SVG Export Plug-In . SVG Version: 6.00 Build 0)  -->
<svg version="1.1" id="Layer_1" xmlns="http://www.w3.org/2000/svg" xmlns:xlink="http://www.w3.org/1999/xlink" x="0px" y="0px"
	 viewBox="0 0 83.43 91.04" style="enable-background:new 0 0 83.43 91.04;" xml:space="preserve">
<style type="text/css">
	.st0{fill:url(#SVGID_1_);}
	.st1{fill:none;stroke:#FFFFFF;stroke-width:1.919;stroke-linecap:round;stroke-linejoin:round;stroke-miterlimit:10;}
	.st2{fill:#FFFFFF;}
	.st3{fill:url(#SVGID_00000067948726302647830120000007716229073694710919_);}
	.st4{fill:url(#SVGID_00000133495847361217766410000008783016275591319943_);}
	.st5{fill:url(#SVGID_00000143612724647868048750000013862738283469927302_);}
	.st6{fill:none;stroke:#FFFFFF;stroke-width:2.1377;stroke-linecap:round;stroke-linejoin:round;stroke-miterlimit:10;}
	.st7{fill:none;stroke:#FFFFFF;stroke-width:2.1377;stroke-linecap:round;stroke-linejoin:round;}
	.st8{fill:none;stroke:#FFFFFF;stroke-width:2.1377;stroke-linecap:round;stroke-linejoin:round;stroke-dasharray:4.3983,3.5187;}
	.st9{fill:url(#SVGID_00000027567694719276931730000008719475364758782627_);}
	.st10{fill:url(#SVGID_00000027590818051363556380000009497544365533029814_);}
	.st11{fill:none;stroke:#FFFFFF;stroke-width:1.919;stroke-miterlimit:10;}
	.st12{fill:none;stroke:#FFFFFF;stroke-width:1.919;stroke-linecap:round;stroke-miterlimit:10;}
	.st13{fill:url(#SVGID_00000052100298291099487620000002163995341021368753_);}
	.st14{fill:url(#SVGID_00000007422913024697893380000010541272781949635728_);}
</style>
<g>
	<radialGradient id="SVGID_1_" cx="40.8726" cy="-14.3476" r="104.112" gradientUnits="userSpaceOnUse">
		<stop  offset="0.3045" style="stop-color:#000000"/>
		<stop  offset="0.3726" style="stop-color:#050007"/>
		<stop  offset="0.4695" style="stop-color:#130019"/>
		<stop  offset="0.5836" style="stop-color:#2A0038"/>
		<stop  offset="0.7107" style="stop-color:#4A0063"/>
		<stop  offset="0.8471" style="stop-color:#730099"/>
		<stop  offset="0.9833" style="stop-color:#A100D6"/>
	</radialGradient>
	<polygon class="st0" points="41.6,0 0,17.44 0,73.44 41.6,91.04 83.43,73.57 83.43,17.3 	"/>
	<g>
		<polygon class="st1" points="41.71,18.02 15.15,28.46 15.15,62.58 41.71,73.01 68.28,62.46 68.28,28.33 		"/>
		<polyline class="st1" points="68.28,28.33 41.71,38.07 15.15,28.46 		"/>
		<line class="st1" x1="41.71" y1="72.13" x2="41.71" y2="39.27"/>
		<line class="st1" x1="47.58" y1="26.01" x2="36.26" y2="30.12"/>
		<g>
			<path class="st2" d="M44.53,47.81l1.71-0.62l1.59,5.73l1.59-6.88l1.69-0.61l-2.43,9.99l-1.7,0.64L44.53,47.81z"/>
			<path class="st2" d="M53.79,46.76c1.45-0.53,2.6,0.55,2.6,2.49c-0.01,1.93-1.17,3.87-2.61,4.41c-1.45,0.54-2.62-0.53-2.62-2.47
				C51.16,49.23,52.34,47.29,53.79,46.76z M53.79,48.56c-0.62,0.23-1.12,1.04-1.12,2.06c0,1.02,0.49,1.47,1.11,1.24
				c0.62-0.23,1.11-1.04,1.12-2.06C54.9,48.78,54.41,48.33,53.79,48.56z"/>
			<path class="st2" d="M57.72,47.26l-0.77,0.28l0-1.65l0.39-0.14c0.41-0.15,0.61-0.48,0.61-1.01l0-0.93l1.26-0.46l-0.01,1.57
				l1.04-0.38l-0.01,1.78l-1.04,0.38l-0.01,2.14c0,0.57,0.27,0.82,0.65,0.68c0.12-0.04,0.2-0.09,0.27-0.13l0.11-0.08l-0.01,1.71
				c-0.05,0.05-0.12,0.1-0.2,0.14c-0.14,0.1-0.32,0.19-0.51,0.26c-1.15,0.43-1.81-0.16-1.8-1.75L57.72,47.26z"/>
			<path class="st2" d="M65.76,47.12c-0.26,1.15-1.04,2.43-2.33,2.91c-1.34,0.5-2.49-0.56-2.48-2.47c0.01-1.92,1.16-3.83,2.57-4.35
				c1.35-0.49,2.42,0.46,2.41,2.51c0,0.16-0.02,0.3-0.03,0.44l-0.02,0.22l-3.4,1.26c0.12,0.45,0.47,0.82,1.03,0.61
				c0.27-0.1,0.47-0.27,0.58-0.43c0.08-0.08,0.13-0.18,0.17-0.28L65.76,47.12z M64.53,45.67c-0.12-0.52-0.47-0.89-1.02-0.68
				c-0.55,0.2-0.91,0.83-1.03,1.44L64.53,45.67z"/>
		</g>
		<polyline class="st1" points="22.41,48.39 25.78,53.13 33.58,44.58 		"/>
	</g>
	
		<radialGradient id="SVGID_00000031192933930616111330000002349839280191114382_" cx="45.2762" cy="15.632" r="74.0114" gradientUnits="userSpaceOnUse">
		<stop  offset="0.6704" style="stop-color:#000000"/>
		<stop  offset="0.905" style="stop-color:#A100D6"/>
		<stop  offset="1" style="stop-color:#DD8CD6"/>
	</radialGradient>
	<polygon style="fill:url(#SVGID_00000031192933930616111330000002349839280191114382_);" points="83.43,17.3 83.43,73.58 
		41.6,91.04 0,73.44 0,17.44 0.04,17.43 0.77,72.81 41.43,90.1 82.77,73.01 83.39,17.29 	"/>
</g>
</svg>
