<?xml version="1.0" encoding="utf-8"?>
<!-- Generator: Adobe Illustrator 27.0.0, SVG Export Plug-In . SVG Version: 6.00 Build 0)  -->
<svg version="1.1" id="Layer_1" xmlns="http://www.w3.org/2000/svg" xmlns:xlink="http://www.w3.org/1999/xlink" x="0px" y="0px"
	 viewBox="0 0 83.43 91.04" style="enable-background:new 0 0 83.43 91.04;" xml:space="preserve">
<style type="text/css">
	.st0{fill:url(#SVGID_1_);}
	.st1{fill:none;stroke:#FFFFFF;stroke-width:1.919;stroke-linecap:round;stroke-linejoin:round;stroke-miterlimit:10;}
	.st2{fill:#FFFFFF;}
	.st3{fill:url(#SVGID_00000011726026786807604140000016501111083497531528_);}
	.st4{fill:url(#SVGID_00000177444871701703636820000002826744949782578603_);}
	.st5{fill:url(#SVGID_00000002342231843949845650000003444752502535335862_);}
	.st6{fill:none;stroke:#FFFFFF;stroke-width:2.1377;stroke-linecap:round;stroke-linejoin:round;stroke-miterlimit:10;}
	.st7{fill:none;stroke:#FFFFFF;stroke-width:2.1377;stroke-linecap:round;stroke-linejoin:round;}
	.st8{fill:none;stroke:#FFFFFF;stroke-width:2.1377;stroke-linecap:round;stroke-linejoin:round;stroke-dasharray:4.3983,3.5187;}
	.st9{fill:url(#SVGID_00000021105984006847971140000006600960975337936826_);}
	.st10{fill:url(#SVGID_00000118369123680071387910000006401441537309686915_);}
	.st11{fill:none;stroke:#FFFFFF;stroke-width:1.919;stroke-miterlimit:10;}
	.st12{fill:none;stroke:#FFFFFF;stroke-width:1.919;stroke-linecap:round;stroke-miterlimit:10;}
	.st13{fill:url(#SVGID_00000018220233979179301990000008356398305385242046_);}
	.st14{fill:url(#SVGID_00000148630314936449286950000001278401968664063631_);}
</style>
<g>
	<g>
		<radialGradient id="SVGID_1_" cx="40.8726" cy="-14.3476" r="104.112" gradientUnits="userSpaceOnUse">
			<stop  offset="0.3045" style="stop-color:#000000"/>
			<stop  offset="0.3726" style="stop-color:#050007"/>
			<stop  offset="0.4695" style="stop-color:#130019"/>
			<stop  offset="0.5836" style="stop-color:#2A0038"/>
			<stop  offset="0.7107" style="stop-color:#4A0063"/>
			<stop  offset="0.8471" style="stop-color:#730099"/>
			<stop  offset="0.9833" style="stop-color:#A100D6"/>
		</radialGradient>
		<polygon class="st0" points="41.6,0 0,17.44 0,73.44 41.6,91.04 83.43,73.57 83.43,17.3 		"/>
		
			<radialGradient id="SVGID_00000131346687787959690350000003814483136826829228_" cx="45.2762" cy="15.632" r="74.0114" gradientUnits="userSpaceOnUse">
			<stop  offset="0.6704" style="stop-color:#000000"/>
			<stop  offset="0.905" style="stop-color:#A100D6"/>
			<stop  offset="1" style="stop-color:#DD8CD6"/>
		</radialGradient>
		<polygon style="fill:url(#SVGID_00000131346687787959690350000003814483136826829228_);" points="83.43,17.3 83.43,73.58 
			41.6,91.04 0,73.44 0,17.44 0.04,17.43 0.77,72.81 41.43,90.1 82.77,73.01 83.39,17.29 		"/>
	</g>
	<g>
		<path class="st2" d="M68.65,33.62c-0.32,0.34-0.62,0.7-0.95,1.03c-2.1,2.11-4.21,4.22-6.32,6.32c-0.74,0.73-1.23,0.73-1.97,0
			c-0.91-0.91-1.83-1.83-2.81-2.81c0,1.98,0,3.86,0,5.74c4.08-0.16,5.68,1.07,6.69,5.18c0.47,0,0.96,0,1.44,0
			c0.91,0,1.34,0.36,1.42,1.26c0.31,3.45,0.62,6.91,0.92,10.37c0.2,2.25,0.36,4.51,0.61,6.75c0.17,1.58-0.2,2.15-1.88,2.14
			c-5.45-0.04-10.9-0.02-16.36-0.02c-1.21,0-1.64-0.47-1.53-1.69c0.04-0.47,0.07-0.94,0.12-1.5c-0.96,0-1.89-0.01-2.83,0.01
			c-0.08,0-0.18,0.18-0.23,0.3c-0.37,1.01-1.09,1.6-2.13,1.82c-6.15,1.3-12.35,1.74-18.6,1.07c-2.4-0.26-4.78-0.69-7.16-1.08
			c-1.09-0.18-1.85-0.83-2.16-1.91c-0.31-1.08,0-2.01,0.82-2.76c0.78-0.71,1.58-1.38,2.35-2.11c0.18-0.17,0.31-0.46,0.32-0.71
			c0.04-1.63-0.04-3.26,0.08-4.89c0.28-3.93,3.67-7.03,7.62-7.07c0.24,0,0.48,0,0.76,0c0-3.63,0-7.21,0-10.87
			c-0.14,0.12-0.26,0.21-0.36,0.31c-0.84,0.84-1.68,1.69-2.53,2.53c-0.64,0.63-1.18,0.62-1.82-0.01c-2.3-2.29-4.59-4.58-6.88-6.88
			c-0.64-0.64-0.63-1.18,0-1.81c2.84-2.84,5.67-5.69,8.52-8.51c2.41-2.39,5.32-3.56,8.71-3.57c6.15-0.01,12.31-0.01,18.46,0
			c3.39,0,6.3,1.18,8.71,3.56c2.85,2.83,5.68,5.67,8.52,8.51c0.17,0.17,0.32,0.36,0.47,0.54C68.65,33.13,68.65,33.37,68.65,33.62z
			 M66.12,67.98c-0.51-5.78-1.01-11.53-1.51-17.29c-4.56,0-9.08,0-13.6,0c-0.01,0.12-0.02,0.2-0.03,0.29
			c-0.1,1.19-0.21,2.37-0.31,3.56c-0.05,0.58-0.35,0.9-0.83,0.89c-0.49-0.01-0.79-0.36-0.74-0.94c0.11-1.43,0.22-2.87,0.38-4.29
			c0.08-0.73,0.55-1.1,1.29-1.11c0.52-0.01,1.05,0,1.57,0c0.04-0.23,0.07-0.42,0.1-0.61c0.22-1.5,0.94-2.7,2.16-3.59
			c0.3-0.22,0.41-0.44,0.41-0.82c-0.01-5.12-0.01-10.24-0.01-15.36c0-0.19-0.02-0.39,0.02-0.58c0.09-0.43,0.36-0.69,0.81-0.66
			c0.44,0.02,0.7,0.29,0.74,0.74c0.01,0.14,0.01,0.28,0.01,0.42c0,2.07,0.03,4.14-0.02,6.21c-0.02,0.75,0.17,1.29,0.74,1.81
			c1.07,0.97,2.06,2.04,3.04,3.01c2.18-2.18,4.32-4.32,6.47-6.47c-0.04-0.05-0.11-0.13-0.18-0.2c-2.69-2.69-5.38-5.38-8.07-8.07
			c-0.32-0.32-0.67-0.62-1.03-0.9c-1.73-1.32-3.68-2.05-5.84-2.17c-1.02,5.42-4.08,8.88-9.68,9c-5.89,0.13-9.13-3.36-10.23-9.01
			c-2.69,0.19-5,1.22-6.92,3.14c-2.65,2.65-5.31,5.3-7.96,7.96c-0.1,0.1-0.18,0.2-0.23,0.26c2.16,2.16,4.3,4.3,6.46,6.47
			c1.1-1.1,2.21-2.24,3.36-3.35c0.3-0.29,0.42-0.57,0.42-0.99c-0.02-2.31-0.01-4.63-0.01-6.94c0-0.58,0.3-0.92,0.78-0.92
			c0.47,0,0.78,0.35,0.8,0.92c0,0.14,0,0.28,0,0.42c0,5.68,0,11.36,0,17.04c0,0.21,0,0.41,0,0.61c0.84,0,1.63-0.01,2.41,0
			c1.19,0.02,2.08,0.91,2.14,2.09c0.01,0.17,0.02,0.34,0.03,0.54c0.31,0,0.57,0,0.83,0c3.85,0.05,7.21,3.09,7.54,6.93
			c0.13,1.5,0.11,3.01,0.06,4.52c-0.02,0.7,0.2,1.15,0.73,1.6c0.92,0.8,1.75,1.7,2.63,2.55c0.09,0.08,0.24,0.13,0.37,0.13
			c0.86,0.01,1.72-0.01,2.58,0.01c0.33,0.01,0.43-0.13,0.45-0.42c0.03-0.54,0.08-1.08,0.13-1.62c0.13-1.43,0.24-2.86,0.39-4.29
			c0.06-0.56,0.52-0.89,0.98-0.74c0.48,0.16,0.61,0.52,0.57,1c-0.26,2.88-0.51,5.76-0.76,8.64c-0.02,0.2,0,0.4,0,0.61
			C55.07,67.98,60.57,67.98,66.12,67.98z M37,61.57c0-1.75,0.05-3.44-0.02-5.14c-0.05-1.33-0.51-2.57-1.27-3.68
			c-0.94-1.37-2.18-2.18-3.92-2.11c-1.31,0.05-2.63,0.03-3.94,0c-1.2-0.02-2.18,0.44-3,1.27c-1.02,1.03-1.68,2.3-1.82,3.71
			c-0.18,1.93-0.15,3.88-0.2,5.82c0,0.03,0.03,0.06,0.06,0.12c0.55,0.07,1.13,0.13,1.7,0.21c0.61,0.08,0.91,0.4,0.84,0.91
			c-0.06,0.47-0.46,0.73-1.02,0.65c-1.53-0.2-3.05-0.42-4.58-0.61c-0.21-0.03-0.49,0.04-0.65,0.17c-0.79,0.66-1.56,1.36-2.33,2.04
			c-0.37,0.33-0.58,0.71-0.44,1.21c0.14,0.49,0.49,0.72,0.98,0.83c3.33,0.72,6.69,1.14,10.1,1.28c5.07,0.22,10.08-0.23,15.04-1.29
			c0.47-0.1,0.81-0.34,0.94-0.81c0.13-0.47-0.03-0.86-0.39-1.18c-0.8-0.71-1.59-1.43-2.41-2.12c-0.13-0.11-0.38-0.17-0.56-0.15
			c-1.55,0.19-3.08,0.49-4.63,0.6c-2.34,0.16-4.69,0.2-7.03,0.26c-0.53,0.02-0.85-0.34-0.84-0.81c0.01-0.45,0.33-0.74,0.83-0.76
			c0.17-0.01,0.35,0,0.53,0C31.66,62.07,34.33,61.93,37,61.57z M33.49,21.87c0.13,3.21,3.04,7.47,8.2,7.49
			c5.11,0.02,8.11-4.17,8.26-7.49c-0.32,0-0.65,0-0.98,0c-0.03,0.1-0.06,0.18-0.08,0.27c-0.71,4-4.08,6.55-8.1,6.11
			c-1.49-0.16-2.79-0.79-3.91-1.78c-0.33-0.29-0.42-0.65-0.18-1.03c0.21-0.34,0.55-0.44,0.92-0.31c0.19,0.07,0.36,0.22,0.52,0.35
			c2.93,2.37,7.34,1.27,8.8-2.19c0.18-0.44,0.28-0.91,0.42-1.4c-3.81,0-7.52,0-11.26,0c0.04,0.23,0.08,0.42,0.11,0.6
			c0.12,0.57-0.08,0.96-0.55,1.08c-0.46,0.12-0.84-0.15-0.99-0.7c-0.03-0.12-0.09-0.24-0.08-0.36c0.04-0.66-0.36-0.72-0.87-0.66
			C33.65,21.85,33.57,21.86,33.49,21.87z M56.56,49.02c1.73,0,3.39,0,5.05,0c-0.1-2.38-2.46-4.13-4.7-3.51
			c-0.14,0.04-0.33,0.23-0.33,0.35C56.55,46.91,56.56,47.96,56.56,49.02z M39.85,61.16c0-1.7,0.08-3.35-0.02-4.98
			c-0.11-1.79-1.02-3.2-2.44-4.29c-0.14-0.11-0.29-0.2-0.49-0.32c0.37,0.73,0.73,1.37,1.02,2.04c0.58,1.39,0.74,2.87,0.73,4.37
			c-0.01,1.1,0,2.2,0,3.35C39.09,61.26,39.46,61.21,39.85,61.16z M23.08,51.59c-0.18,0.05-0.23,0.05-0.26,0.07
			c-1.58,1.07-2.58,2.54-2.75,4.44c-0.12,1.41-0.06,2.83-0.08,4.25c0,0.26,0,0.51,0,0.78c0.45,0.06,0.82,0.12,1.25,0.18
			C21.28,57.96,20.83,54.57,23.08,51.59z M28.49,49.05c1,0,1.95,0,2.91,0c0.08-0.86-0.07-1.02-0.9-1.03c-0.37,0-0.73,0-1.1,0
			C28.56,48.03,28.41,48.19,28.49,49.05z M54.93,49.06c0-0.81,0-1.56,0-2.39c-0.62,0.75-0.95,1.5-0.97,2.39
			C54.31,49.06,54.62,49.06,54.93,49.06z"/>
		<g>
			<polygon class="st2" points="38.74,36.37 36.4,37.71 36.4,43.87 41.79,46.95 42.96,46.28 42.96,42.24 40.63,40.91 40.63,43.62 
				38.74,42.53 			"/>
			<polygon class="st2" points="44.83,45.22 47.16,43.89 47.16,37.73 41.77,34.65 40.6,35.31 40.6,39.35 42.94,40.69 42.94,37.98 
				44.83,39.06 			"/>
		</g>
		<g>
			<polygon class="st2" points="55.5,56.27 53.81,57.24 53.81,61.71 57.72,63.94 58.57,63.46 58.57,60.53 56.87,59.56 56.87,61.52 
				55.5,60.74 			"/>
			<polygon class="st2" points="59.92,62.69 61.61,61.72 61.61,57.25 57.7,55.02 56.86,55.5 56.86,58.43 58.55,59.4 58.55,57.44 
				59.92,58.22 			"/>
		</g>
		<g>
			<polygon class="st2" points="28.46,54.31 27.33,54.96 27.33,57.95 29.95,59.44 30.51,59.12 30.51,57.16 29.38,56.51 29.38,57.82 
				28.46,57.3 			"/>
			<polygon class="st2" points="31.42,58.6 32.55,57.96 32.55,54.97 29.94,53.47 29.37,53.8 29.37,55.76 30.5,56.4 30.5,55.09 
				31.42,55.61 			"/>
		</g>
	</g>
</g>
</svg>
