<svg width="40" height="20" viewBox="0 0 40 20" fill="none" xmlns="http://www.w3.org/2000/svg">
<path d="M0 0H40V20H0V0Z" fill="#DA2032"/>
<path d="M13.3333 0H26.6666V20H13.3333V0Z" fill="#0066B3"/>
<path d="M6.66659 8.66667C7.67911 8.66667 8.49992 7.84585 8.49992 6.83333C8.49992 5.82081 7.67911 5 6.66659 5C5.65406 5 4.83325 5.82081 4.83325 6.83333C4.83325 7.84585 5.65406 8.66667 6.66659 8.66667Z" fill="#FFD900"/>
<path d="M6.66675 8C7.77132 8 8.66675 7.10457 8.66675 6C8.66675 4.89543 7.77132 4 6.66675 4C5.56218 4 4.66675 4.89543 4.66675 6C4.66675 7.10457 5.56218 8 6.66675 8Z" fill="#DA2032"/>
<path d="M6.66659 7.66667C7.40297 7.66667 7.99993 7.06971 7.99993 6.33333C7.99993 5.59695 7.40297 5 6.66659 5C5.93021 5 5.33325 5.59695 5.33325 6.33333C5.33325 7.06971 5.93021 7.66667 6.66659 7.66667Z" fill="#FFD900"/>
<path d="M6.80678 2C6.64112 2.07517 6.57922 2.2107 6.56588 2.34571C6.55755 2.45937 6.60772 2.58741 6.61272 2.69857C6.61272 2.88987 6.41478 2.95287 6.41478 3.22591C6.41478 3.31974 6.50145 3.42314 6.50145 3.66667C6.48645 3.79451 6.41512 3.82334 6.33478 3.83334C6.29058 3.83334 6.24819 3.81578 6.21693 3.78452C6.18568 3.75327 6.16812 3.71088 6.16812 3.66667C6.16824 3.62395 6.18476 3.5829 6.21428 3.55201C6.21955 3.54605 6.22523 3.54048 6.23128 3.53534C6.26928 3.49701 6.32145 3.48217 6.32112 3.38101C6.32112 3.32901 6.28745 3.28167 6.25528 3.18961C6.22495 3.10027 6.24695 2.95094 6.31912 2.86277C6.20245 2.90777 6.13055 3.01961 6.09388 3.11994C6.05522 3.24327 6.08888 3.31431 6.03588 3.41681C6.00355 3.48314 5.96505 3.51064 5.92855 3.56597C5.88538 3.62631 5.83472 3.76741 5.83472 3.83291C5.83472 4.05392 5.92251 4.26588 6.07879 4.42216C6.23507 4.57844 6.44704 4.66624 6.66805 4.66624C6.88906 4.66624 7.10102 4.57844 7.25731 4.42216C7.41359 4.26588 7.50138 4.05392 7.50138 3.83291C7.50138 3.76741 7.45138 3.62631 7.40822 3.56597C7.37172 3.51064 7.33255 3.48314 7.30022 3.41681C7.24788 3.31431 7.28155 3.24327 7.24288 3.11994C7.20622 3.01961 7.13422 2.90781 7.01762 2.86277C7.08978 2.95094 7.11178 3.10027 7.08145 3.18961C7.04912 3.28161 7.01512 3.32894 7.01512 3.38101C7.01512 3.48217 7.06695 3.49701 7.10495 3.53534C7.11101 3.54048 7.11669 3.54605 7.12195 3.55201C7.15147 3.5829 7.16799 3.62395 7.16812 3.66667C7.16812 3.71088 7.15056 3.75327 7.1193 3.78452C7.08805 3.81578 7.04565 3.83334 7.00145 3.83334C6.90928 3.82167 6.84312 3.77867 6.83478 3.66667C6.83478 3.34581 6.97212 3.32534 6.97212 3.08791C6.97212 2.74887 6.66808 2.58837 6.66808 2.3405C6.66808 2.2565 6.68775 2.11334 6.80675 1.99959L6.80678 2ZM3 9.00001H4.66667V17H3V9.00001ZM8.66667 9.00001H10.3333V17H8.66667V9.00001ZM5 9.00001H8.33333L6.66667 10L5 9.00001ZM5 10.3333H8.33333V11H5V10.3333ZM5 15H8.33333V15.6667H5V15ZM5 16H8.33333L6.66667 17L5 16Z" fill="#FFD900"/>
<path d="M6.66667 14.6667C7.58714 14.6667 8.33333 13.9205 8.33333 13C8.33333 12.0795 7.58714 11.3333 6.66667 11.3333C5.74619 11.3333 5 12.0795 5 13C5 13.9205 5.74619 14.6667 6.66667 14.6667Z" fill="#FFD900"/>
<path d="M6.66659 12.45C6.85068 12.45 6.99992 12.3008 6.99992 12.1167C6.99992 11.9326 6.85068 11.7833 6.66659 11.7833C6.48249 11.7833 6.33325 11.9326 6.33325 12.1167C6.33325 12.3008 6.48249 12.45 6.66659 12.45Z" fill="#DA2032"/>
<path d="M6.66659 14.2167C6.85068 14.2167 6.99992 14.0674 6.99992 13.8833C6.99992 13.6992 6.85068 13.55 6.66659 13.55C6.48249 13.55 6.33325 13.6992 6.33325 13.8833C6.33325 14.0674 6.48249 14.2167 6.66659 14.2167Z" fill="#DA2032"/>
<path d="M6.66668 11.1333C6.92748 11.1333 7.17759 11.2369 7.36201 11.4213C7.54642 11.6058 7.65002 11.8559 7.65002 12.1167C7.65002 12.3775 7.54642 12.6276 7.36201 12.812C7.17759 12.9964 6.92748 13.1 6.66668 13.1C6.45893 13.1 6.25969 13.1825 6.11278 13.3294C5.96588 13.4763 5.88335 13.6756 5.88335 13.8833C5.88335 14.0911 5.96588 14.2903 6.11278 14.4372C6.25969 14.5841 6.45893 14.6667 6.66668 14.6667V14.8667C6.40589 14.8667 6.15577 14.7631 5.97136 14.5787C5.78695 14.3942 5.68335 14.1441 5.68335 13.8833C5.68335 13.6225 5.78695 13.3724 5.97136 13.188C6.15577 13.0036 6.40589 12.9 6.66668 12.9C6.87444 12.9 7.07368 12.8175 7.22058 12.6706C7.36749 12.5237 7.45002 12.3244 7.45002 12.1167C7.45002 11.9089 7.36749 11.7097 7.22058 11.5628C7.07368 11.4159 6.87444 11.3333 6.66668 11.3333V11.1333Z" fill="#DA2032"/>
</svg>
