<?xml version="1.0" encoding="UTF-8"?><svg xmlns="http://www.w3.org/2000/svg" xmlns:xlink="http://www.w3.org/1999/xlink" viewBox="0 0 146.1 144.06"><defs><style>.cls-1{fill:url(#radial-gradient-10);}.cls-2{fill:url(#radial-gradient-7);}.cls-2,.cls-3{mix-blend-mode:screen;}.cls-4{fill:url(#radial-gradient-8);}.cls-5{fill:url(#radial-gradient-5);}.cls-6{fill:url(#radial-gradient-4);}.cls-7{isolation:isolate;}.cls-8{fill:url(#radial-gradient-6);}.cls-9{fill:url(#radial-gradient);}.cls-10{fill:url(#radial-gradient-2);}.cls-11{fill:url(#radial-gradient-3);}.cls-12{fill:url(#radial-gradient-9);}</style><radialGradient id="radial-gradient" cx="72.49" cy="51.18" fx="72.49" fy="51.18" r="44.97" gradientUnits="userSpaceOnUse"><stop offset=".36" stop-color="#304"/><stop offset=".51" stop-color="#4a0063"/><stop offset=".85" stop-color="#8600b3"/><stop offset=".98" stop-color="#a100d6"/></radialGradient><radialGradient id="radial-gradient-2" cx="47.63" cy="58.8" fx="47.63" fy="58.8" r="10.94" gradientUnits="userSpaceOnUse"><stop offset=".67" stop-color="#000"/><stop offset=".91" stop-color="#a100d6"/><stop offset="1" stop-color="#dd8cd6"/></radialGradient><radialGradient id="radial-gradient-3" cx="72.49" cy="85.12" fx="72.49" fy="85.12" r="20" xlink:href="#radial-gradient-2"/><radialGradient id="radial-gradient-4" cx="98.53" cy="59.57" fx="98.53" fy="59.57" r="10.99" xlink:href="#radial-gradient-2"/><radialGradient id="radial-gradient-5" cx="53.15" cy="75.5" fx="53.15" fy="75.5" r="9.95" xlink:href="#radial-gradient-2"/><radialGradient id="radial-gradient-6" cx="93.02" cy="76.2" fx="93.02" fy="76.2" r="9.81" xlink:href="#radial-gradient-2"/><radialGradient id="radial-gradient-7" cx="79.29" cy="11.99" fx="79.29" fy="11.99" r="129.62" xlink:href="#radial-gradient-2"/><radialGradient id="radial-gradient-8" cx="66.33" cy="60.4" fx="38.94" fy="60.4" r="83.29" gradientUnits="userSpaceOnUse"><stop offset=".25" stop-color="#000" stop-opacity="0"/><stop offset=".67" stop-color="#000" stop-opacity="0"/><stop offset=".91" stop-color="#a100d6"/><stop offset="1" stop-color="#dd8cd6"/></radialGradient><radialGradient id="radial-gradient-9" cx="27.36" cy="55.95" fx="27.36" fy="55.95" r="98.28" gradientUnits="userSpaceOnUse"><stop offset=".18" stop-color="#000" stop-opacity="0"/><stop offset=".91" stop-color="#a100d6"/><stop offset="1" stop-color="#dd8cd6"/></radialGradient><radialGradient id="radial-gradient-10" cx="52.46" cy="12.14" fx="52.46" fy="12.14" r="79.19" gradientTransform="translate(5.24 -13.26) rotate(16.33) scale(1 .91)" gradientUnits="userSpaceOnUse"><stop offset=".14" stop-color="#000" stop-opacity="0"/><stop offset=".32" stop-color="#260032" stop-opacity=".4"/><stop offset=".7" stop-color="#a100d6"/><stop offset="1" stop-color="#dd8cd6"/></radialGradient></defs><g class="cls-7"><g id="Layer_1"><g><polygon points="132.93 24.8 132.57 24.95 72.74 0 13.17 25.08 13.17 25.08 13.17 25.08 13.17 25.09 13.17 25.09 13.17 105.67 73.08 130.68 73.08 130.38 132.93 105.39 132.93 24.8"/><g><g><path class="cls-9" d="M51.01,87.27c.53-2.16,1.19-4.87,1.87-7.58,.76-3.03,1.49-6.07,2.35-9.07,.4-1.39,.05-2.29-1.06-3.19-3.63-2.97-7.19-6.02-10.77-9.05-.76-.64-1.52-1.3-2.16-2.05-1.11-1.3-1.3-2.83-.64-4.4,.65-1.52,1.85-2.36,3.52-2.47,5.53-.37,11.06-.77,16.59-1.06,1.38-.07,2.12-.58,2.63-1.87,1.93-4.89,3.96-9.73,5.95-14.59,.62-1.51,1.49-2.76,3.21-3.14,2.31-.5,4.05,.42,4.97,2.7,2,4.96,4.01,9.92,5.91,14.92,.61,1.61,1.57,2.21,3.28,2.3,5.11,.27,10.2,.71,15.3,1.11,1.98,.16,3.56,.93,4.2,3.01,.64,2.08-.04,3.64-1.71,4.98-4.02,3.24-7.94,6.6-11.97,9.83-1.38,1.11-1.72,2.3-1.28,3.98,1.27,4.9,2.45,9.83,3.65,14.75,.58,2.36,.07,4.04-1.61,5.17-1.78,1.19-3.51,.75-5.18-.31-4.4-2.78-8.83-5.53-13.19-8.37-1.33-.87-2.41-.91-3.76-.04-4.22,2.71-8.48,5.37-12.79,7.94-.97,.58-2.17,1.02-3.3,1.08-2.32,.14-4.01-1.68-4.02-4.59Z"/><g class="cls-3"><path class="cls-10" d="M54.18,67.45c-3.63-2.98-7.18-6.02-10.77-9.05-.75-.65-1.51-1.3-2.15-2.05-.82-.98-1.14-2.08-.98-3.22,.07,.79,.4,1.54,.98,2.22,.65,.75,1.4,1.42,2.15,2.05,3.59,3.05,7.15,6.09,10.77,9.05,.98,.81,1.37,1.59,1.17,2.71-.12-.65-.51-1.17-1.17-1.72Z"/><path class="cls-11" d="M95.07,87.66c.12,1.72-.45,2.98-1.8,3.89-1.79,1.19-3.52,.75-5.18-.3-4.41-2.78-8.84-5.53-13.2-8.37-1.33-.88-2.4-.91-3.77-.03-4.22,2.71-8.48,5.36-12.78,7.93-.96,.6-2.17,1.02-3.29,1.09-2.33,.14-4.01-1.68-4.03-4.59,.02-.07,.04-.12,.05-.19,.3,2.45,1.87,3.92,3.98,3.8,1.12-.07,2.33-.51,3.29-1.09,4.31-2.57,8.56-5.24,12.78-7.95,1.37-.88,2.43-.82,3.77,.03,4.36,2.85,8.79,5.6,13.2,8.37,1.66,1.07,3.4,1.51,5.18,.32,1.07-.72,1.66-1.68,1.8-2.91Z"/><path class="cls-6" d="M106.39,53.89c.18,1.58-.53,2.82-1.91,3.94-4.03,3.24-7.95,6.6-11.98,9.82-.86,.68-1.31,1.42-1.42,2.28-.17-1.31,.26-2.31,1.42-3.26,4.03-3.24,7.95-6.58,11.98-9.82,1.07-.88,1.73-1.82,1.91-2.96Z"/><path class="cls-5" d="M55.35,69.16c.09,.42,.05,.91-.11,1.47-.86,2.99-1.59,6.04-2.36,9.07-.67,2.63-1.3,5.25-1.82,7.37-.04-.25-.05-.51-.05-.79,.54-2.17,1.19-4.89,1.87-7.58,.77-3.03,1.51-6.06,2.36-9.07,.05-.16,.09-.32,.11-.47Z"/><path class="cls-8" d="M95.07,87.64c-.02-.4-.09-.82-.19-1.26-1.21-4.92-2.38-9.84-3.66-14.75-.16-.63-.21-1.19-.14-1.7,.02,.23,.07,.46,.14,.72,1.28,4.9,2.45,9.82,3.66,14.75,.19,.84,.26,1.58,.19,2.24Z"/></g></g><g><polygon class="cls-2" points="146.1 14.92 146.1 113.47 72.85 144.06 0 113.23 0 15.16 .07 15.14 1.34 112.13 72.55 142.41 144.95 112.49 146.03 14.89 146.1 14.92"/><polygon class="cls-4" points="73.26 130.41 73.26 49.32 133.17 24.8 133.17 105.39 73.26 130.41"/><polygon class="cls-12" points="73.31 130.68 73.31 49.6 13.4 25.08 13.4 105.67 73.31 130.68"/><polygon class="cls-1" points="72.97 0 13.4 25.09 73.31 49.61 133.12 25.09 72.97 0"/></g></g></g></g></g></svg>