<svg width="20" height="20" viewBox="0 0 20 20" fill="none" xmlns="http://www.w3.org/2000/svg">
<path d="M9.99996 1.6665C7.79855 1.69458 5.69521 2.58157 4.13845 4.13832C2.58169 5.69508 1.6947 7.79843 1.66663 9.99984C1.67692 11.2823 1.98306 12.545 2.56122 13.6898C3.13938 14.8345 3.97395 15.8304 4.99996 16.5998V16.6665H5.08329C6.49428 17.7477 8.22233 18.3337 9.99996 18.3337C11.7776 18.3337 13.5056 17.7477 14.9166 16.6665H15V16.5998C16.026 15.8304 16.8605 14.8345 17.4387 13.6898C18.0169 12.545 18.323 11.2823 18.3333 9.99984C18.3052 7.79843 17.4182 5.69508 15.8615 4.13832C14.3047 2.58157 12.2014 1.69458 9.99996 1.6665ZM6.72496 15.7748C6.84661 15.2177 7.15509 14.7189 7.5992 14.3612C8.04331 14.0035 8.59637 13.8083 9.16663 13.8082H10.8333C11.4036 13.8083 11.9566 14.0035 12.4007 14.3612C12.8448 14.7189 13.1533 15.2177 13.275 15.7748C12.2823 16.3588 11.1516 16.6668 9.99996 16.6668C8.84829 16.6668 7.71757 16.3588 6.72496 15.7748ZM14.675 14.6998C14.358 13.9423 13.8242 13.2953 13.1407 12.8401C12.4572 12.385 11.6545 12.1419 10.8333 12.1415H9.16663C8.34544 12.1419 7.54269 12.385 6.85919 12.8401C6.17569 13.2953 5.64194 13.9423 5.32496 14.6998C4.70051 14.0857 4.20321 13.3545 3.86147 12.548C3.51973 11.7416 3.34025 10.8757 3.33329 9.99984C3.35491 8.23844 4.06423 6.55528 5.30981 5.30969C6.5554 4.0641 8.23856 3.35479 9.99996 3.33317C11.7614 3.35479 13.4445 4.0641 14.6901 5.30969C15.9357 6.55528 16.645 8.23844 16.6666 9.99984C16.6597 10.8757 16.4802 11.7416 16.1384 12.548C15.7967 13.3545 15.2994 14.0857 14.675 14.6998Z" fill="#5639C6"/>
<path d="M9.99999 4.99991C9.55944 4.98964 9.12139 5.06885 8.71234 5.23273C8.30328 5.39662 7.93171 5.64177 7.62012 5.95337C7.30852 6.26496 7.06336 6.63653 6.89948 7.04559C6.7356 7.45464 6.65639 7.89269 6.66666 8.33324C6.65639 8.77379 6.7356 9.21184 6.89948 9.62089C7.06336 10.03 7.30852 10.4015 7.62012 10.7131C7.93171 11.0247 8.30328 11.2699 8.71234 11.4337C9.12139 11.5976 9.55944 11.6768 9.99999 11.6666C10.4405 11.6768 10.8786 11.5976 11.2876 11.4337C11.6967 11.2699 12.0683 11.0247 12.3799 10.7131C12.6915 10.4015 12.9366 10.03 13.1005 9.62089C13.2644 9.21184 13.3436 8.77379 13.3333 8.33324C13.3436 7.89269 13.2644 7.45464 13.1005 7.04559C12.9366 6.63653 12.6915 6.26496 12.3799 5.95337C12.0683 5.64177 11.6967 5.39662 11.2876 5.23273C10.8786 5.06885 10.4405 4.98964 9.99999 4.99991ZM9.99999 9.99991C9.77828 10.0106 9.55678 9.97485 9.34972 9.89489C9.14266 9.81492 8.95461 9.69253 8.79765 9.53558C8.6407 9.37862 8.51831 9.19057 8.43834 8.98351C8.35838 8.77645 8.3226 8.55495 8.33332 8.33324C8.3226 8.11153 8.35838 7.89003 8.43834 7.68297C8.51831 7.47591 8.6407 7.28786 8.79765 7.13091C8.95461 6.97395 9.14266 6.85156 9.34972 6.77159C9.55678 6.69163 9.77828 6.65586 9.99999 6.66657C10.2217 6.65586 10.4432 6.69163 10.6503 6.77159C10.8573 6.85156 11.0454 6.97395 11.2023 7.13091C11.3593 7.28786 11.4817 7.47591 11.5616 7.68297C11.6416 7.89003 11.6774 8.11153 11.6667 8.33324C11.6774 8.55495 11.6416 8.77645 11.5616 8.98351C11.4817 9.19057 11.3593 9.37862 11.2023 9.53558C11.0454 9.69253 10.8573 9.81492 10.6503 9.89489C10.4432 9.97485 10.2217 10.0106 9.99999 9.99991Z" fill="#5639C6"/>
</svg>
